<svg xmlns="http://www.w3.org/2000/svg" width="24" height="24" viewBox="0 0 48 48"><rect width="48" height="48" fill="none"/><path fill="#8cbcd6" d="M40 41H8c-2.2 0-4-1.8-4-4V11c0-2.2 1.8-4 4-4h32c2.2 0 4 1.8 4 4v26c0 2.2-1.8 4-4 4"/><circle cx="35" cy="16" r="3" fill="#b3ddf5"/><path fill="#9ac9e3" d="M20 16L9 32h22z"/><path fill="#b3ddf5" d="m31 22l-8 10h16z"/><circle cx="38" cy="38" r="10" fill="#f44336"/><g fill="#fff"><path d="m43.31 41.181l-2.12 2.122l-8.485-8.484l2.121-2.122z"/><path d="m34.819 43.31l-2.122-2.12l8.484-8.485l2.122 2.121z"/></g></svg>